<?xml version="1.0" encoding="utf-8"?>
<!-- Generator: Adobe Illustrator 21.0.2, SVG Export Plug-In . SVG Version: 6.00 Build 0)  -->
<svg version="1.1" id="Layer_1" xmlns="http://www.w3.org/2000/svg" xmlns:xlink="http://www.w3.org/1999/xlink" x="0px" y="0px"
	 viewBox="0 0 44 37.3" style="enable-background:new 0 0 44 37.3;" xml:space="preserve">
<style type="text/css">
	.st0{fill:#FFFFFF;}
</style>
<path id="Shape_1_copy" class="st0" d="M3,32.1l-0.7-1.7H0l1.6,3.4L3,32.1z M4.9,30.3l-3,3.8l-0.6,3.2h2l0.6-3.2l3.2-3.8H4.9z
	 M12.1,30.3l-0.8,4.3c0,0.3-0.2,0.6-0.4,0.8c-0.2,0.2-0.4,0.2-0.6,0.3L10,37.3c0.5,0,0.9-0.1,1.4-0.2c0.3-0.1,0.6-0.3,0.9-0.5
	c0.3-0.3,0.5-0.6,0.7-0.9c0.2-0.3,0.3-0.7,0.4-1.1l0.7-4.2L12.1,30.3L12.1,30.3z M9.8,35.7c-0.2,0-0.4-0.1-0.5-0.3
	c-0.2-0.2-0.2-0.5-0.2-0.8l0.8-4.3h-2l-0.7,4.2c-0.1,0.4-0.1,0.7,0,1.1c0,0.3,0.1,0.5,0.3,0.8c0.2,0.2,0.4,0.4,0.6,0.6
	c0.3,0.1,0.6,0.2,0.9,0.3c0.2,0,0.4,0,0.6,0.1L9.8,35.7z M32.2,35.7c-0.2,0-0.4-0.1-0.5-0.3c-0.2-0.2-0.2-0.5-0.2-0.8l0.8-4.3h-2
	l-0.7,4.2c-0.1,0.4-0.1,0.7,0,1.1c0,0.3,0.1,0.5,0.3,0.8c0.2,0.2,0.4,0.4,0.6,0.6c0.3,0.1,0.6,0.2,0.9,0.3c0.2,0,0.4,0,0.6,0.1
	L32.2,35.7z M34.5,30.3l-0.8,4.3c0,0.3-0.2,0.6-0.4,0.8c-0.2,0.2-0.4,0.2-0.6,0.3l-0.3,1.5c0.5,0,0.9-0.1,1.4-0.2
	c0.3-0.1,0.6-0.3,0.9-0.5c0.3-0.3,0.5-0.6,0.7-0.9c0.2-0.3,0.3-0.7,0.4-1.1l0.7-4.2L34.5,30.3L34.5,30.3z M16.7,33.5l0.5-3.1l0,0
	h-1.9l-1.2,6.8H16L16.7,33.5z M19.7,30.4L19,34.2l-1.5-3L17,34.2l1.5,3h1.9l1.2-6.8C21.6,30.4,19.7,30.4,19.7,30.4z M39.1,33.5
	l0.5-3.1l0,0h-1.9l-1.2,6.8h1.9L39.1,33.5z M42.1,30.4l-0.7,3.8l-1.5-3l-0.5,3.1l1.5,3h1.9l1.2-6.8L42.1,30.4L42.1,30.4z M28.4,32.4
	c0-0.4-0.1-0.7-0.3-1c-0.2-0.3-0.5-0.5-0.8-0.7c-0.4-0.2-0.9-0.3-1.4-0.2h-3l-0.3,1.5h3.8l-0.1,2.6l-1.7,1.4l-1.2-1.4l0.7-2.2h-1.7
	l-0.9,4.9h3c0.4,0,0.8-0.1,1.2-0.2c0.4-0.1,0.7-0.3,1-0.5c0.3-0.3,0.6-0.6,0.8-1C28.3,34.6,28.5,33.5,28.4,32.4L28.4,32.4z
	 M31.5,2.5c0.7,0,1.4,0,2,0.1V0H11.2v8.7C17.2,4.7,24.3,2.5,31.5,2.5L31.5,2.5z M27.1,10.3l0.5,6.3l-5.3,4.1l-3.8-4.1l0,0l0,0
	c3-5.3,8.1-9.2,14-10.6V4.2c-0.4,0-0.7,0-1.1,0c-7.6,0-15,2.5-21.1,7.1c0,0,0,0.1,0,0.1l3.8,0l-3.1,6.8l5.2,4.1l6,4.7l11.2-8.8
	L32.1,8.1C30.3,8.6,28.7,9.4,27.1,10.3L27.1,10.3z"/>
</svg>
